<?xml version="1.0" standalone="no"?>
<!DOCTYPE svg PUBLIC "-//W3C//DTD SVG 20010904//EN"
 "http://www.w3.org/TR/2001/REC-SVG-20010904/DTD/svg10.dtd">
<svg version="1.0" xmlns="http://www.w3.org/2000/svg"
 width="354.000000pt" height="705.000000pt" viewBox="0 0 354.000000 705.000000"
 preserveAspectRatio="xMidYMid meet">

<g transform="translate(0.000000,705.000000) scale(0.100000,-0.100000)"
fill="#000000" stroke="none">
<path d="M1510 7040 c-935 -5 -1051 -7 -1099 -22 -254 -79 -367 -250 -376
-573 -7 -246 -7 -360 0 -377 4 -10 3 -124 -1 -254 -5 -130 -6 -238 -1 -241 4
-2 5 -109 3 -236 -6 -327 -6 -193 -3 -2637 l2 -2225 22 -77 c55 -193 152 -298
331 -355 69 -23 101 -26 317 -33 336 -11 2072 -11 2232 0 309 21 473 141 546
397 l22 78 3 2060 c2 1312 6 2063 12 2069 6 6 10 21 10 35 0 18 -3 22 -9 13
-17 -27 -21 37 -21 360 0 319 3 364 21 352 5 -3 9 6 9 20 0 13 -4 26 -9 28 -6
2 -11 242 -14 578 -4 545 -5 579 -25 652 -52 190 -152 298 -330 355 -64 21
-108 26 -262 34 -102 4 -219 7 -260 6 -41 -1 -545 -4 -1120 -7z m1585 -35 c89
-19 180 -63 236 -115 24 -23 35 -37 23 -31 -11 5 -26 16 -32 24 -22 26 -149
77 -227 92 -115 22 -2535 22 -2650 0 -78 -15 -205 -66 -227 -92 -6 -8 -21 -19
-32 -24 -12 -6 -1 8 23 31 55 50 147 96 231 114 99 22 2553 22 2655 1z m-2825
-187 c-52 -65 -85 -137 -101 -223 -5 -31 -8 -1255 -7 -3100 3 -2869 4 -3053
20 -3100 16 -46 51 -111 95 -175 9 -14 -4 -6 -29 19 -27 25 -57 68 -73 102
-59 132 -55 -74 -53 3226 l3 3028 21 62 c30 86 66 145 116 187 61 53 64 44 8
-26z m3057 -26 c38 -50 69 -130 83 -214 6 -42 10 -1068 10 -3051 0 -3291 4
-3072 -61 -3196 -30 -58 -48 -83 -89 -116 l-24 -20 17 25 c45 66 79 130 95
180 16 52 17 239 17 3130 l0 3075 -24 68 c-13 40 -44 96 -72 134 -27 35 -49
67 -49 70 0 12 67 -46 97 -85z m-3176 -23 c-11 -19 -30 -70 -43 -114 l-23 -80
0 -3050 c0 -2884 1 -3053 18 -3114 9 -35 26 -83 37 -107 10 -24 17 -44 15 -44
-11 0 -66 105 -82 155 -17 58 -18 182 -18 3105 0 3260 -2 3095 48 3195 22 45
59 97 64 91 2 -2 -5 -19 -16 -37z m3283 -49 c54 -104 51 84 51 -3195 0 -2910
-1 -3043 -18 -3100 -16 -52 -79 -165 -92 -165 -2 0 7 21 20 48 13 26 32 76 42
112 17 62 18 188 18 3110 l0 3045 -23 80 c-13 44 -32 95 -43 113 -10 18 -19
36 -19 40 1 13 40 -42 64 -88z m-1487 -2206 c206 -46 391 -198 488 -399 56
-117 75 -200 75 -325 0 -207 -64 -370 -204 -518 -318 -338 -873 -298 -1140 82
-89 127 -126 236 -133 403 -7 142 12 235 73 358 56 114 124 198 211 263 187
141 403 188 630 136z m-784 -1946 c10 -5 27 -28 37 -51 l18 -40 11 41 c11 38
14 41 54 47 23 3 74 6 112 5 205 -1 337 1 398 7 l68 6 43 -47 c45 -48 55 -48
70 1 7 22 17 25 137 38 l56 6 5 -51 c3 -28 8 -53 11 -56 3 -4 26 10 50 30 56
46 105 66 161 66 59 0 74 -7 92 -42 15 -29 15 -29 42 -12 57 38 103 54 152 54
64 0 90 -23 90 -80 0 -42 -7 -49 -76 -66 -20 -5 -26 -2 -31 15 -3 12 -11 20
-17 18 -24 -8 -15 -38 28 -86 28 -31 48 -65 52 -87 15 -81 -43 -172 -126 -194
-57 -15 -103 -6 -145 31 l-35 31 -30 -26 c-58 -48 -132 -58 -192 -24 -30 17
-41 19 -47 10 -4 -7 -33 -16 -64 -19 l-56 -6 -3 39 c-4 49 -27 52 -47 7 -13
-29 -20 -33 -68 -39 -30 -3 -57 -4 -60 0 -3 3 2 32 11 64 17 61 21 122 9 122
-20 0 -106 -38 -113 -50 -5 -8 -12 -35 -15 -62 -8 -58 -19 -67 -85 -75 l-52
-6 6 29 c6 26 14 88 33 237 4 32 2 47 -6 47 -14 0 -26 -31 -36 -94 -7 -53 -42
-197 -49 -203 -2 -2 -29 -7 -60 -10 -68 -7 -66 -15 -31 176 14 74 25 144 25
157 0 28 -48 54 -100 54 -41 0 -50 -11 -50 -60 0 -24 5 -29 35 -34 36 -7 41
-18 29 -63 -4 -16 -16 -23 -44 -28 -39 -7 -50 -22 -50 -72 0 -20 5 -23 36 -23
l35 0 -3 -42 -3 -43 -70 -12 c-38 -6 -87 -12 -107 -12 -37 -1 -38 0 -38 34 0
19 -4 35 -9 35 -5 0 -29 -16 -52 -36 -52 -43 -78 -54 -128 -54 -83 0 -127 78
-118 210 14 206 177 358 310 288z m-860 -2449 c130 -60 99 -59 1463 -59 1091
0 1254 2 1321 16 83 17 170 52 217 88 55 40 62 38 16 -4 -57 -51 -150 -97
-238 -115 -102 -22 -2534 -22 -2637 0 -89 19 -180 64 -236 116 -43 40 -43 40
-6 15 20 -15 66 -40 100 -57z"/>
<path d="M1665 4480 c-280 -51 -490 -241 -565 -512 -25 -89 -27 -252 -5 -348
28 -119 89 -225 185 -321 138 -139 265 -197 455 -206 208 -10 369 51 516 197
93 92 135 158 176 272 34 98 43 272 19 381 -55 246 -246 450 -486 516 -86 25
-223 34 -295 21z m145 -50 c0 -5 -4 -10 -10 -10 -5 0 -10 -14 -10 -31 0 -17
-4 -28 -10 -24 -5 3 -10 16 -10 29 0 12 -5 27 -12 34 -9 9 -5 12 20 12 18 0
32 -4 32 -10z m90 -11 c0 -6 -7 -9 -15 -5 -8 3 -15 1 -15 -4 0 -6 5 -10 10
-10 6 0 10 -4 10 -10 0 -5 -7 -7 -15 -4 -8 4 -15 1 -15 -5 0 -6 7 -11 15 -11
8 0 15 -4 15 -10 0 -11 -11 -13 -34 -4 -10 4 -16 18 -16 40 0 31 3 34 30 34
17 0 30 -5 30 -11z m-250 -23 c0 -18 6 -26 23 -29 19 -3 20 -4 5 -11 -29 -13
-48 1 -48 34 0 16 5 30 10 30 6 0 10 -11 10 -24z m-74 -1 c-19 -15 -19 -15 4
-15 23 0 23 0 4 -15 -18 -14 -18 -14 4 -15 13 0 20 -4 17 -10 -3 -5 -17 -10
-29 -10 -18 0 -25 7 -30 32 -6 33 4 48 34 48 11 -1 10 -4 -4 -15z m411 -1 c2
-6 -7 -10 -19 -10 -31 1 -37 -31 -6 -36 21 -4 21 -5 5 -13 -12 -5 -24 -2 -35
8 -22 23 -1 70 30 65 12 -2 23 -8 25 -14z m-477 -31 c0 -10 3 -28 6 -40 5 -16
2 -23 -8 -23 -16 0 -64 47 -56 55 3 3 11 -1 18 -10 19 -22 28 -18 22 10 -2 15
0 25 7 25 6 0 11 -8 11 -17z m537 3 c-8 -20 4 -28 20 -14 21 17 23 6 6 -30
-17 -35 -38 -44 -28 -12 7 22 -20 30 -28 8 -2 -7 -7 -10 -11 -6 -10 8 21 68
35 68 6 0 9 -6 6 -14z m-154 -61 c140 -36 278 -145 345 -271 139 -266 32 -589
-240 -723 -152 -75 -303 -75 -456 0 -332 163 -404 590 -143 850 134 134 322
189 494 144z m296 -24 c21 -14 21 -50 0 -62 -26 -14 -58 8 -51 35 8 33 27 42
51 27z m-809 -47 c0 -24 -23 -37 -51 -29 -21 7 -21 45 0 61 20 16 51 -4 51
-32z m920 -69 c10 -12 10 -19 2 -27 -9 -9 -12 -8 -12 5 0 9 -4 17 -10 17 -5 0
-9 -10 -7 -22 1 -14 -4 -23 -16 -26 -25 -5 -31 23 -10 47 21 25 36 27 53 6z
m-1045 -39 c11 -8 25 -12 32 -9 20 8 15 -12 -9 -33 -17 -15 -20 -16 -15 -3 3
11 -3 21 -19 29 -13 8 -24 17 -24 22 0 12 14 10 35 -6z m1086 -27 c12 -23 10
-25 -35 -51 -16 -8 -22 -7 -33 8 -20 28 -15 39 8 18 22 -19 22 -19 14 6 -7 22
-6 23 9 11 21 -17 33 -7 16 14 -8 10 -9 15 -2 15 6 0 16 -10 23 -21z m-1108
-36 c30 -16 30 -18 10 -21 -26 -4 -29 -12 -11 -30 16 -16 -2 -16 -37 0 -30 13
-34 32 -5 23 14 -5 20 -2 20 9 0 9 -4 16 -10 16 -5 0 -10 5 -10 10 0 14 6 13
43 -7z m1121 -38 c-5 -20 -3 -24 10 -19 9 3 16 2 16 -4 0 -6 -14 -15 -32 -21
-24 -9 -34 -8 -40 1 -14 24 -9 48 11 48 11 0 23 5 26 10 11 18 16 11 9 -15z
m-1132 -54 c10 -9 -2 -51 -14 -51 -5 0 -7 10 -3 23 6 21 6 21 -9 3 -16 -19
-16 -19 -16 2 0 12 -4 22 -10 22 -5 0 -10 -7 -10 -15 0 -8 -5 -15 -11 -15 -6
0 -8 7 -5 16 3 9 6 20 6 26 0 10 59 2 72 -11z m1176 -28 c4 -24 -28 -47 -56
-40 -13 3 -11 7 11 15 37 16 35 35 -3 27 -32 -7 -43 10 -12 18 34 10 57 2 60
-20z m-12 -73 c14 0 22 -4 19 -10 -3 -5 -17 -10 -31 -10 -13 0 -24 -6 -24 -12
0 -18 -20 13 -20 31 0 8 6 11 16 7 9 -3 27 -6 40 -6z m-1186 -30 c0 -5 -9 -10
-20 -10 -27 0 -25 -14 3 -28 22 -11 22 -11 1 -11 -29 -1 -75 35 -54 42 8 3 22
8 30 10 25 9 40 8 40 -3z m1215 -30 c3 -6 -1 -13 -9 -16 -21 -8 -20 -21 2 -27
9 -3 -2 -5 -25 -6 -47 -1 -52 5 -25 25 16 13 16 13 0 14 -10 0 -18 5 -18 10 0
13 67 13 75 0z m-1225 -60 c-20 -13 -60 -13 -60 0 0 6 17 10 38 10 27 0 33 -3
22 -10z m1175 -33 c13 17 14 17 15 1 0 -10 4 -18 9 -18 5 0 12 8 14 18 3 10 5
6 6 -10 1 -26 -2 -28 -36 -29 -33 0 -36 -2 -20 -12 61 -39 61 -44 3 -54 -24
-4 -36 -2 -36 6 0 6 9 11 20 11 23 0 27 15 6 23 -9 4 -13 18 -12 39 4 48 8 56
13 30 4 -22 5 -23 18 -5z m-1159 -12 c4 -8 3 -23 -1 -32 -7 -16 -9 -15 -15 7
-7 23 -8 23 -9 4 -2 -42 -51 -34 -51 8 0 26 20 22 21 -4 1 -21 2 -20 11 5 10
29 35 36 44 12z m14 -74 c0 -5 -14 -14 -31 -20 -39 -13 -39 -13 -39 -1 0 5 15
14 33 19 17 5 33 10 35 10 1 1 2 -3 2 -8z m18 -53 c32 -32 -18 -87 -53 -58
-20 17 -19 47 3 59 23 14 36 13 50 -1z m1066 -30 c-6 -20 -5 -21 10 -9 14 12
16 11 16 -3 0 -21 16 -21 24 0 4 9 9 14 12 11 5 -4 -10 -41 -21 -55 -2 -2 -17
4 -35 13 -21 11 -30 21 -26 31 3 9 6 20 6 25 0 5 5 9 11 9 6 0 8 -9 3 -22z
m-1038 -62 c-5 -21 -3 -23 17 -19 22 4 22 4 2 -12 -11 -9 -28 -21 -38 -27 -17
-9 -18 -7 -12 23 7 30 6 32 -9 20 -9 -7 -16 -9 -16 -3 0 10 39 41 54 41 4 1 5
-10 2 -23z m1064 -19 c0 -5 -7 -7 -15 -4 -20 8 -29 -11 -15 -28 17 -20 0 -19
-29 1 -19 14 -25 14 -32 3 -6 -10 -1 -19 14 -31 12 -9 18 -20 14 -24 -4 -4
-15 0 -24 8 -10 9 -24 13 -30 11 -20 -7 -15 9 12 39 16 19 29 26 41 21 14 -5
16 -2 10 21 l-7 28 31 -18 c16 -10 30 -22 30 -27z m-966 -103 c20 -8 21 -41 1
-60 -11 -12 -18 -12 -33 -3 -20 13 -19 47 2 61 13 9 11 9 30 2z m836 -54 c0
-25 -30 -41 -53 -29 -39 22 -4 79 35 58 10 -5 18 -18 18 -29z m-712 -39 c12
-10 22 -23 22 -30 0 -14 13 -14 28 1 16 16 16 -2 0 -37 -12 -26 -32 -36 -22
-11 6 17 -12 31 -21 16 -12 -19 -26 -11 -15 9 14 27 13 41 -4 41 -8 0 -18 -9
-21 -20 -3 -11 -11 -20 -17 -20 -6 0 -7 7 -3 18 5 9 8 25 9 35 0 22 17 22 44
-2z m572 -10 c0 -5 -8 -12 -17 -14 -11 -3 -7 -5 10 -6 20 -1 27 -6 27 -21 0
-23 -22 -36 -41 -24 -9 5 -7 10 7 15 18 7 17 8 -3 8 -28 1 -38 18 -23 36 14
17 40 20 40 6z m-450 -43 c0 -6 -7 -8 -15 -4 -8 3 -15 1 -15 -4 0 -6 5 -10 10
-10 6 0 10 -4 10 -10 0 -5 -7 -7 -15 -4 -20 8 -19 -6 3 -22 14 -11 15 -13 1
-14 -8 0 -23 6 -32 13 -14 10 -14 16 -2 44 10 25 18 30 34 26 12 -3 21 -10 21
-15z m374 6 c-16 -13 -16 -15 -1 -10 9 3 17 1 17 -4 0 -6 -4 -10 -10 -10 -5 0
-10 -5 -10 -11 0 -6 9 -8 20 -4 11 4 20 2 20 -4 0 -6 -4 -11 -9 -11 -5 0 -16
-2 -24 -6 -9 -3 -18 5 -27 25 -14 35 -7 51 23 51 20 0 20 0 1 -16z m-40 -30
c14 -53 -38 -75 -55 -24 -15 41 -29 38 -29 -6 0 -21 -4 -33 -10 -29 -5 3 -10
17 -10 31 0 13 -4 24 -10 24 -5 0 -10 5 -10 10 0 6 18 10 39 10 33 0 40 -4 45
-25 9 -36 30 -32 23 5 -8 37 8 40 17 4z m-274 -12 c0 -13 5 -12 20 8 24 30 26
11 4 -32 -18 -35 -30 -28 -40 21 -5 25 -4 32 4 27 7 -4 12 -15 12 -24z m70
-11 c0 -17 -4 -33 -10 -36 -6 -4 -10 8 -10 29 0 20 5 36 10 36 6 0 10 -13 10
-29z m67 -6 c-1 -35 -10 -45 -21 -22 -5 10 -7 10 -12 0 -11 -25 -24 -13 -24
22 0 32 3 35 29 35 27 0 29 -3 28 -35z"/>
<path d="M1619 4236 c-206 -72 -331 -263 -317 -482 7 -99 36 -177 96 -257 91
-118 220 -182 372 -182 105 0 182 23 265 80 198 135 261 397 148 618 -100 198
-353 298 -564 223z m272 -2 c82 -24 127 -51 191 -112 69 -65 111 -135 133
-217 68 -262 -107 -530 -377 -576 -271 -45 -528 180 -528 464 0 63 22 152 51
209 28 54 122 153 177 185 102 60 244 79 353 47z"/>
<path d="M1693 4203 c-53 -29 -76 -69 -81 -135 -4 -50 -7 -58 -21 -52 -9 4
-40 10 -69 12 -44 3 -60 0 -91 -21 -113 -75 -88 -263 38 -294 42 -9 43 -13 17
-43 -51 -61 -42 -165 19 -219 76 -66 168 -60 235 16 l39 44 15 -29 c29 -56
110 -90 175 -72 78 21 123 80 123 160 0 50 -12 81 -45 118 -19 21 -19 22 -2
22 35 0 102 48 120 87 62 130 -52 274 -185 234 -51 -15 -50 -16 -50 31 0 55
-39 120 -84 142 -45 21 -113 20 -153 -1z m130 -7 c71 -29 110 -111 87 -181
-10 -31 -15 -36 -34 -30 -51 17 -142 17 -180 1 -47 -20 -62 -11 -71 44 -8 50
8 99 43 133 48 46 98 57 155 33z m-256 -187 c15 -6 38 -20 50 -31 l22 -21 -29
-41 c-29 -40 -51 -117 -47 -166 2 -21 -3 -26 -28 -28 -161 -19 -228 205 -83
277 48 24 74 26 115 10z m534 -12 c67 -44 88 -135 47 -197 -31 -45 -66 -69
-111 -77 l-37 -6 0 59 c0 67 -24 126 -64 163 -33 31 -33 37 7 61 45 28 114 26
158 -3z m-299 -54 c15 -32 15 -40 2 -71 -7 -19 -14 -50 -14 -68 0 -19 -4 -34
-10 -34 -11 0 -13 11 -11 50 1 14 -4 40 -12 58 -12 29 -12 38 2 67 9 19 18 34
21 35 3 0 13 -16 22 -37z m-44 -161 c6 -18 -15 -14 -22 4 -4 10 -1 14 6 12 6
-2 14 -10 16 -16z m62 -3 c0 -5 -4 -9 -10 -9 -5 0 -10 7 -10 16 0 8 5 12 10 9
6 -3 10 -10 10 -16z m-25 -56 c3 -21 15 -52 25 -70 10 -17 16 -41 13 -52 -5
-21 -23 -29 -23 -11 0 6 -11 10 -25 10 -14 0 -25 -4 -25 -10 0 -17 -18 -11
-24 8 -4 10 1 33 10 51 9 18 18 50 21 72 7 49 19 50 28 2z m-205 -43 c17 -41
83 -96 128 -107 46 -11 52 -36 20 -83 -43 -65 -121 -86 -188 -52 -96 48 -109
184 -24 251 36 28 49 26 64 -9z m436 5 c28 -19 54 -75 54 -117 0 -74 -74 -147
-148 -148 -54 0 -107 34 -131 83 -12 24 -21 46 -21 49 0 4 18 9 39 13 55 9
122 55 146 98 22 41 31 44 61 22z"/>
<path d="M1492 3940 c0 -14 2 -19 5 -12 2 6 2 18 0 25 -3 6 -5 1 -5 -13z"/>
<path d="M1518 3883 c-27 -4 -28 -7 -28 -60 0 -46 -3 -54 -16 -49 -8 3 -12 2
-9 -4 3 -6 13 -10 21 -10 10 0 14 14 14 55 0 48 3 55 19 55 11 0 23 5 26 10 3
6 5 9 3 9 -2 -1 -15 -4 -30 -6z"/>
<path d="M1438 3873 c7 -3 16 -2 19 1 4 3 -2 6 -13 5 -11 0 -14 -3 -6 -6z"/>
<path d="M2050 3890 c0 -5 7 -10 15 -10 8 0 15 5 15 10 0 6 -7 10 -15 10 -8 0
-15 -4 -15 -10z"/>
<path d="M1775 3950 c-3 -5 -1 -10 4 -10 6 0 11 5 11 10 0 6 -2 10 -4 10 -3 0
-8 -4 -11 -10z"/>
<path d="M1775 3910 c-3 -5 -1 -10 4 -10 6 0 11 5 11 10 0 6 -2 10 -4 10 -3 0
-8 -4 -11 -10z"/>
<path d="M1758 3613 c12 -2 32 -2 45 0 12 2 2 4 -23 4 -25 0 -35 -2 -22 -4z"/>
<path d="M1535 3543 c9 -39 34 -63 64 -63 26 0 25 1 -6 16 -18 9 -36 28 -42
45 -13 37 -25 38 -16 2z"/>
<path d="M2315 4000 c3 -5 8 -10 11 -10 2 0 4 5 4 10 0 6 -5 10 -11 10 -5 0
-7 -4 -4 -10z"/>
<path d="M1193 3555 c-3 -9 -3 -18 0 -22 10 -10 37 6 37 22 0 20 -29 20 -37 0z"/>
<path d="M1770 3180 c0 -5 5 -10 10 -10 6 0 10 5 10 10 0 6 -4 10 -10 10 -5 0
-10 -4 -10 -10z"/>
<path d="M1036 2457 c-44 -57 -70 -156 -57 -217 5 -29 11 -35 31 -35 16 0 26
7 28 18 2 12 -3 17 -17 17 -37 0 -17 76 21 84 13 2 51 10 85 17 55 10 63 15
72 42 6 16 11 40 11 53 0 24 -3 25 -82 9 -10 -1 -24 8 -33 21 -20 32 -29 30
-59 -9z"/>
<path d="M2392 2412 c-9 -6 -5 -18 18 -48 16 -21 32 -55 36 -74 9 -57 13 -65
26 -52 8 8 21 5 48 -11 32 -18 40 -19 54 -8 25 21 20 30 -40 89 -31 31 -61 68
-66 84 -8 21 -16 28 -36 28 -15 0 -33 -4 -40 -8z"/>
<path d="M2170 2285 c0 -51 10 -69 25 -45 4 7 14 5 28 -5 20 -14 77 -21 77
-10 0 19 -35 68 -63 89 -54 41 -67 36 -67 -29z"/>
</g>
</svg>
